# xmcd
#
# Track frame offsets:
# 150
# 25975
# 54024
# 76530
# 92757
# 114643
# 131001
# 160008
# 183531
# 198976
#
# Disc length: 2985 seconds
#
# Revision: 0
# Processed by: cddbd v1.5.2PL0 Copyright (c) Steve Scherf et al.
# Submitted via: Audion 3.0.2 (http://www.panic.com/audion/)
#
DISCID=730ba70a
DTITLE=Cracker and Leftover Salmon - Oh Cracker, Where Art Thou?
DYEAR=1900
DGENRE=
TTITLE0=Get Off This
TTITLE1=Eurotrash Girl
TTITLE2=Sweet Potato
TTITLE3=Ms. Santa Cruz County
TTITLE4=Mr. Wrong
TTITLE5=Lonesome Johnny Blues
TTITLE6=Low
TTITLE7=Teen Angst (What the World Needs Now)
TTITLE8=How Can I Live Without You?
TTITLE9=Waiting For You Girl
EXTD=
EXTT0=
EXTT1=
EXTT2=
EXTT3=
EXTT4=
EXTT5=
EXTT6=
EXTT7=
EXTT8=
EXTT9=
PLAYORDER=
